<mxfile host="app.diagrams.net" agent="Mozilla/5.0 (Windows NT 10.0; Win64; x64) AppleWebKit/537.36 (KHTML, like Gecko) Chrome/136.0.0.0 Safari/537.36" version="27.0.3">
  <diagram name="Page-1" id="Bcld8eepM3Q_6lrC7nTW">
    <mxGraphModel dx="708" dy="544" grid="1" gridSize="10" guides="1" tooltips="1" connect="1" arrows="1" fold="1" page="1" pageScale="1" pageWidth="850" pageHeight="1100" math="0" shadow="0">
      <root>
        <mxCell id="0" />
        <mxCell id="1" parent="0" />
        <mxCell id="82_35OJn1oNoIte2NMlz-1" value="&lt;p style=&quot;margin:0px;margin-top:4px;text-align:center;&quot;&gt;&lt;b&gt;Patient&lt;/b&gt;&lt;/p&gt;&lt;hr size=&quot;1&quot; style=&quot;border-style:solid;&quot;&gt;&lt;p style=&quot;margin:0px;margin-left:4px;&quot;&gt;patientID&lt;/p&gt;&lt;p style=&quot;margin:0px;margin-left:4px;&quot;&gt;recordID&lt;/p&gt;&lt;p style=&quot;margin:0px;margin-left:4px;&quot;&gt;&lt;br&gt;&lt;/p&gt;" style="verticalAlign=top;align=left;overflow=fill;html=1;whiteSpace=wrap;" parent="1" vertex="1">
          <mxGeometry x="50" width="160" height="60" as="geometry" />
        </mxCell>
        <mxCell id="82_35OJn1oNoIte2NMlz-2" value="&lt;p style=&quot;margin:0px;margin-top:4px;text-align:center;&quot;&gt;&lt;b&gt;Doctor&lt;/b&gt;&lt;/p&gt;&lt;hr size=&quot;1&quot; style=&quot;border-style:solid;&quot;&gt;&lt;p style=&quot;margin:0px;margin-left:4px;&quot;&gt;doctorID&lt;/p&gt;&lt;p style=&quot;margin:0px;margin-left:4px;&quot;&gt;&lt;br&gt;&lt;/p&gt;" style="verticalAlign=top;align=left;overflow=fill;html=1;whiteSpace=wrap;" parent="1" vertex="1">
          <mxGeometry x="52" y="90" width="160" height="54" as="geometry" />
        </mxCell>
        <mxCell id="82_35OJn1oNoIte2NMlz-3" value="&lt;p style=&quot;margin:0px;margin-top:4px;text-align:center;&quot;&gt;&lt;b&gt;Admin&lt;/b&gt;&lt;/p&gt;&lt;hr size=&quot;1&quot; style=&quot;border-style:solid;&quot;&gt;&lt;p style=&quot;margin:0px;margin-left:4px;&quot;&gt;adminID&lt;/p&gt;" style="verticalAlign=top;align=left;overflow=fill;html=1;whiteSpace=wrap;" parent="1" vertex="1">
          <mxGeometry x="52" y="170" width="160" height="55" as="geometry" />
        </mxCell>
        <mxCell id="82_35OJn1oNoIte2NMlz-4" style="edgeStyle=none;curved=1;rounded=0;orthogonalLoop=1;jettySize=auto;html=1;exitX=0.5;exitY=1;exitDx=0;exitDy=0;fontSize=12;startSize=8;endSize=8;" parent="1" source="82_35OJn1oNoIte2NMlz-3" target="82_35OJn1oNoIte2NMlz-3" edge="1">
          <mxGeometry relative="1" as="geometry" />
        </mxCell>
        <mxCell id="82_35OJn1oNoIte2NMlz-5" value="&lt;p style=&quot;margin:0px;margin-top:4px;text-align:center;&quot;&gt;&lt;b&gt;Account&lt;/b&gt;&lt;/p&gt;&lt;hr size=&quot;1&quot; style=&quot;border-style:solid;&quot;&gt;&lt;p style=&quot;margin:0px;margin-left:4px;&quot;&gt;accountID&lt;/p&gt;&lt;p style=&quot;margin:0px;margin-left:4px;&quot;&gt;name&lt;/p&gt;&lt;p style=&quot;margin:0px;margin-left:4px;&quot;&gt;phone&lt;/p&gt;&lt;p style=&quot;margin:0px;margin-left:4px;&quot;&gt;username&lt;/p&gt;&lt;p style=&quot;margin:0px;margin-left:4px;&quot;&gt;password&lt;/p&gt;&lt;p style=&quot;margin:0px;margin-left:4px;&quot;&gt;loginID&lt;/p&gt;&lt;p style=&quot;margin:0px;margin-left:4px;&quot;&gt;&lt;br&gt;&lt;/p&gt;" style="verticalAlign=top;align=left;overflow=fill;html=1;whiteSpace=wrap;" parent="1" vertex="1">
          <mxGeometry x="52" y="246" width="160" height="124" as="geometry" />
        </mxCell>
        <mxCell id="82_35OJn1oNoIte2NMlz-6" value="&lt;p style=&quot;margin:0px;margin-top:4px;text-align:center;&quot;&gt;&lt;b&gt;VitalSign&lt;/b&gt;&lt;/p&gt;&lt;hr size=&quot;1&quot; style=&quot;border-style:solid;&quot;&gt;&lt;p style=&quot;margin:0px;margin-left:4px;&quot;&gt;vitalID&lt;/p&gt;&lt;p style=&quot;margin:0px;margin-left:4px;&quot;&gt;bloodPressure&lt;/p&gt;&lt;p style=&quot;margin:0px;margin-left:4px;&quot;&gt;heartRate&lt;/p&gt;&lt;p style=&quot;margin:0px;margin-left:4px;&quot;&gt;temperature&lt;/p&gt;&lt;p style=&quot;margin:0px;margin-left:4px;&quot;&gt;GLU (Glucose)&lt;/p&gt;&lt;p style=&quot;margin:0px;margin-left:4px;&quot;&gt;WBC (White Blood Cell count)&lt;/p&gt;&lt;p style=&quot;margin:0px;margin-left:4px;&quot;&gt;RBC (Red&lt;span style=&quot;background-color: transparent; color: light-dark(rgb(0, 0, 0), rgb(255, 255, 255));&quot;&gt;&amp;nbsp;Blood Cell count)&lt;/span&gt;&lt;/p&gt;&lt;p style=&quot;margin:0px;margin-left:4px;&quot;&gt;deviceID&lt;/p&gt;&lt;p style=&quot;margin:0px;margin-left:4px;&quot;&gt;&lt;br&gt;&lt;/p&gt;" style="verticalAlign=top;align=left;overflow=fill;html=1;whiteSpace=wrap;" parent="1" vertex="1">
          <mxGeometry x="52" y="441" width="199" height="149" as="geometry" />
        </mxCell>
        <mxCell id="82_35OJn1oNoIte2NMlz-7" value="&lt;p style=&quot;margin:0px;margin-top:4px;text-align:center;&quot;&gt;&lt;b&gt;Alert&lt;/b&gt;&lt;/p&gt;&lt;hr size=&quot;1&quot; style=&quot;border-style:solid;&quot;&gt;&lt;p style=&quot;margin:0px;margin-left:4px;&quot;&gt;alertID&lt;/p&gt;&lt;p style=&quot;margin:0px;margin-left:4px;&quot;&gt;patientID&lt;/p&gt;&lt;p style=&quot;margin:0px;margin-left:4px;&quot;&gt;doctorID&lt;/p&gt;&lt;p style=&quot;margin:0px;margin-left:4px;&quot;&gt;message&lt;/p&gt;&lt;p style=&quot;margin:0px;margin-left:4px;&quot;&gt;alertLevel&lt;/p&gt;&lt;p style=&quot;margin:0px;margin-left:4px;&quot;&gt;timestamp&lt;/p&gt;&lt;p style=&quot;margin:0px;margin-left:4px;&quot;&gt;state&lt;/p&gt;&lt;p style=&quot;margin:0px;margin-left:4px;&quot;&gt;serverID&lt;/p&gt;&lt;p style=&quot;margin:0px;margin-left:4px;&quot;&gt;&lt;br&gt;&lt;/p&gt;&lt;p style=&quot;margin:0px;margin-left:4px;&quot;&gt;&lt;br&gt;&lt;/p&gt;" style="verticalAlign=top;align=left;overflow=fill;html=1;whiteSpace=wrap;" parent="1" vertex="1">
          <mxGeometry x="265" width="160" height="150" as="geometry" />
        </mxCell>
        <mxCell id="82_35OJn1oNoIte2NMlz-8" value="&lt;p style=&quot;margin:0px;margin-top:4px;text-align:center;&quot;&gt;&lt;b&gt;Authentification&lt;/b&gt;&lt;/p&gt;&lt;hr size=&quot;1&quot; style=&quot;border-style:solid;&quot;&gt;&lt;p style=&quot;margin:0px;margin-left:4px;&quot;&gt;loginID&lt;/p&gt;&lt;p style=&quot;margin:0px;margin-left:4px;&quot;&gt;userName&lt;/p&gt;&lt;p style=&quot;margin:0px;margin-left:4px;&quot;&gt;password&lt;/p&gt;&lt;p style=&quot;margin:0px;margin-left:4px;&quot;&gt;role&lt;/p&gt;&lt;p style=&quot;margin:0px;margin-left:4px;&quot;&gt;serverID&lt;/p&gt;&lt;p style=&quot;margin:0px;margin-left:4px;&quot;&gt;&lt;br&gt;&lt;/p&gt;&lt;p style=&quot;margin:0px;margin-left:4px;&quot;&gt;&lt;br&gt;&lt;/p&gt;&lt;p style=&quot;margin:0px;margin-left:4px;&quot;&gt;&lt;br&gt;&lt;/p&gt;" style="verticalAlign=top;align=left;overflow=fill;html=1;whiteSpace=wrap;" parent="1" vertex="1">
          <mxGeometry x="265" y="160" width="160" height="110" as="geometry" />
        </mxCell>
        <mxCell id="82_35OJn1oNoIte2NMlz-9" value="&lt;p style=&quot;margin:0px;margin-top:4px;text-align:center;&quot;&gt;&lt;b&gt;HealthRecord&lt;/b&gt;&lt;/p&gt;&lt;hr size=&quot;1&quot; style=&quot;border-style:solid;&quot;&gt;&lt;p style=&quot;margin:0px;margin-left:4px;&quot;&gt;recordID&lt;/p&gt;&lt;p style=&quot;margin:0px;margin-left:4px;&quot;&gt;patientID&lt;/p&gt;&lt;p style=&quot;margin:0px;margin-left:4px;&quot;&gt;filePath&lt;/p&gt;&lt;p style=&quot;margin:0px;margin-left:4px;&quot;&gt;vitalID&lt;/p&gt;&lt;p style=&quot;margin:0px;margin-left:4px;&quot;&gt;&lt;br&gt;&lt;/p&gt;&lt;p style=&quot;margin:0px;margin-left:4px;&quot;&gt;&lt;br&gt;&lt;/p&gt;&lt;p style=&quot;margin:0px;margin-left:4px;&quot;&gt;&lt;br&gt;&lt;/p&gt;&lt;p style=&quot;margin:0px;margin-left:4px;&quot;&gt;&lt;br&gt;&lt;/p&gt;" style="verticalAlign=top;align=left;overflow=fill;html=1;whiteSpace=wrap;" parent="1" vertex="1">
          <mxGeometry x="265" y="280" width="160" height="90" as="geometry" />
        </mxCell>
        <mxCell id="82_35OJn1oNoIte2NMlz-10" value="&lt;p style=&quot;margin:0px;margin-top:4px;text-align:center;&quot;&gt;&lt;b&gt;IoTDevice&lt;/b&gt;&lt;/p&gt;&lt;hr size=&quot;1&quot; style=&quot;border-style:solid;&quot;&gt;&lt;p style=&quot;margin:0px;margin-left:4px;&quot;&gt;deviceID&lt;/p&gt;&lt;p style=&quot;margin:0px;margin-left:4px;&quot;&gt;patientID&lt;/p&gt;&lt;p style=&quot;margin:0px;margin-left:4px;&quot;&gt;status&lt;/p&gt;&lt;p style=&quot;margin:0px;margin-left:4px;&quot;&gt;lastSynced&lt;/p&gt;&lt;p style=&quot;margin:0px;margin-left:4px;&quot;&gt;&lt;br&gt;&lt;/p&gt;&lt;p style=&quot;margin:0px;margin-left:4px;&quot;&gt;&lt;br&gt;&lt;/p&gt;&lt;p style=&quot;margin:0px;margin-left:4px;&quot;&gt;&lt;br&gt;&lt;/p&gt;&lt;p style=&quot;margin:0px;margin-left:4px;&quot;&gt;&lt;br&gt;&lt;/p&gt;" style="verticalAlign=top;align=left;overflow=fill;html=1;whiteSpace=wrap;" parent="1" vertex="1">
          <mxGeometry x="440" width="160" height="91" as="geometry" />
        </mxCell>
        <mxCell id="82_35OJn1oNoIte2NMlz-11" value="&lt;p style=&quot;margin:0px;margin-top:4px;text-align:center;&quot;&gt;&lt;b&gt;CloudServer&lt;/b&gt;&lt;/p&gt;&lt;hr size=&quot;1&quot; style=&quot;border-style:solid;&quot;&gt;&lt;p style=&quot;margin:0px;margin-left:4px;&quot;&gt;serverID&lt;/p&gt;&lt;p style=&quot;margin:0px;margin-left:4px;&quot;&gt;status&lt;/p&gt;&lt;p style=&quot;margin:0px;margin-left:4px;&quot;&gt;location&lt;/p&gt;&lt;p style=&quot;margin:0px;margin-left:4px;&quot;&gt;&lt;br&gt;&lt;/p&gt;&lt;p style=&quot;margin:0px;margin-left:4px;&quot;&gt;&lt;br&gt;&lt;/p&gt;&lt;p style=&quot;margin:0px;margin-left:4px;&quot;&gt;&lt;br&gt;&lt;/p&gt;&lt;p style=&quot;margin:0px;margin-left:4px;&quot;&gt;&lt;br&gt;&lt;/p&gt;&lt;p style=&quot;margin:0px;margin-left:4px;&quot;&gt;&lt;br&gt;&lt;/p&gt;" style="verticalAlign=top;align=left;overflow=fill;html=1;whiteSpace=wrap;" parent="1" vertex="1">
          <mxGeometry x="440" y="120" width="160" height="75" as="geometry" />
        </mxCell>
        <mxCell id="82_35OJn1oNoIte2NMlz-12" value="&lt;p style=&quot;margin:0px;margin-top:4px;text-align:center;&quot;&gt;&lt;b&gt;Association_Doctor_Patient&lt;/b&gt;&lt;/p&gt;&lt;hr size=&quot;1&quot; style=&quot;border-style:solid;&quot;&gt;&lt;p style=&quot;margin:0px;margin-left:4px;&quot;&gt;associatonID&lt;/p&gt;&lt;p style=&quot;margin:0px;margin-left:4px;&quot;&gt;doctorID&lt;/p&gt;&lt;p style=&quot;margin:0px;margin-left:4px;&quot;&gt;patientID&lt;/p&gt;&lt;p style=&quot;margin:0px;margin-left:4px;&quot;&gt;assignedDate&lt;/p&gt;&lt;p style=&quot;margin:0px;margin-left:4px;&quot;&gt;&lt;br&gt;&lt;/p&gt;&lt;p style=&quot;margin:0px;margin-left:4px;&quot;&gt;&lt;br&gt;&lt;/p&gt;&lt;p style=&quot;margin:0px;margin-left:4px;&quot;&gt;&lt;br&gt;&lt;/p&gt;&lt;p style=&quot;margin:0px;margin-left:4px;&quot;&gt;&lt;br&gt;&lt;/p&gt;&lt;p style=&quot;margin:0px;margin-left:4px;&quot;&gt;&lt;br&gt;&lt;/p&gt;&lt;p style=&quot;margin:0px;margin-left:4px;&quot;&gt;&lt;br&gt;&lt;/p&gt;" style="verticalAlign=top;align=left;overflow=fill;html=1;whiteSpace=wrap;" parent="1" vertex="1">
          <mxGeometry x="440" y="210" width="172" height="92" as="geometry" />
        </mxCell>
        <mxCell id="82_35OJn1oNoIte2NMlz-13" value="&lt;p style=&quot;margin:0px;margin-top:4px;text-align:center;&quot;&gt;&lt;b&gt;HealthDashboard&lt;/b&gt;&lt;/p&gt;&lt;hr size=&quot;1&quot; style=&quot;border-style:solid;&quot;&gt;&lt;p style=&quot;margin:0px;margin-left:4px;&quot;&gt;dashboardID&lt;/p&gt;&lt;p style=&quot;margin:0px;margin-left:4px;&quot;&gt;accountID&lt;/p&gt;&lt;p style=&quot;margin:0px;margin-left:4px;&quot;&gt;viewType&lt;/p&gt;&lt;p style=&quot;margin:0px;margin-left:4px;&quot;&gt;lastUpdated&lt;/p&gt;&lt;p style=&quot;margin:0px;margin-left:4px;&quot;&gt;serverID&lt;/p&gt;&lt;p style=&quot;margin:0px;margin-left:4px;&quot;&gt;&lt;br&gt;&lt;/p&gt;&lt;p style=&quot;margin:0px;margin-left:4px;&quot;&gt;&lt;br&gt;&lt;/p&gt;&lt;p style=&quot;margin:0px;margin-left:4px;&quot;&gt;&lt;br&gt;&lt;/p&gt;&lt;p style=&quot;margin:0px;margin-left:4px;&quot;&gt;&lt;br&gt;&lt;/p&gt;&lt;p style=&quot;margin:0px;margin-left:4px;&quot;&gt;&lt;br&gt;&lt;/p&gt;" style="verticalAlign=top;align=left;overflow=fill;html=1;whiteSpace=wrap;" parent="1" vertex="1">
          <mxGeometry x="440" y="330" width="160" height="105" as="geometry" />
        </mxCell>
        <mxCell id="82_35OJn1oNoIte2NMlz-14" value="&lt;p style=&quot;margin:0px;margin-top:4px;text-align:center;&quot;&gt;&lt;b&gt;OCR&lt;/b&gt;&lt;/p&gt;&lt;hr size=&quot;1&quot; style=&quot;border-style:solid;&quot;&gt;&lt;p style=&quot;margin:0px;margin-left:4px;&quot;&gt;ocrID&lt;/p&gt;&lt;p style=&quot;margin:0px;margin-left:4px;&quot;&gt;filePath&lt;/p&gt;&lt;p style=&quot;margin:0px;margin-left:4px;&quot;&gt;extractedText&lt;/p&gt;&lt;p style=&quot;margin:0px;margin-left:4px;&quot;&gt;serverID&lt;/p&gt;&lt;p style=&quot;margin:0px;margin-left:4px;&quot;&gt;&lt;br&gt;&lt;/p&gt;&lt;p style=&quot;margin:0px;margin-left:4px;&quot;&gt;&lt;br&gt;&lt;/p&gt;&lt;p style=&quot;margin:0px;margin-left:4px;&quot;&gt;&lt;br&gt;&lt;/p&gt;&lt;p style=&quot;margin:0px;margin-left:4px;&quot;&gt;&lt;br&gt;&lt;/p&gt;&lt;p style=&quot;margin:0px;margin-left:4px;&quot;&gt;&lt;br&gt;&lt;/p&gt;" style="verticalAlign=top;align=left;overflow=fill;html=1;whiteSpace=wrap;" parent="1" vertex="1">
          <mxGeometry x="265" y="500" width="160" height="90" as="geometry" />
        </mxCell>
        <mxCell id="82_35OJn1oNoIte2NMlz-15" value="&lt;p style=&quot;margin:0px;margin-top:4px;text-align:center;&quot;&gt;&lt;b&gt;RiskEvaluator&lt;/b&gt;&lt;/p&gt;&lt;hr size=&quot;1&quot; style=&quot;border-style:solid;&quot;&gt;&lt;p style=&quot;margin:0px;margin-left:4px;&quot;&gt;evaluatorID&lt;/p&gt;&lt;p style=&quot;margin:0px;margin-left:4px;&quot;&gt;patientID&lt;/p&gt;&lt;p style=&quot;margin:0px;margin-left:4px;&quot;&gt;riskScore&lt;/p&gt;&lt;p style=&quot;margin:0px;margin-left:4px;&quot;&gt;evaluationDate&lt;/p&gt;&lt;p style=&quot;margin:0px;margin-left:4px;&quot;&gt;evaluateFormula&lt;/p&gt;&lt;p style=&quot;margin:0px;margin-left:4px;&quot;&gt;serverID&lt;/p&gt;&lt;p style=&quot;margin:0px;margin-left:4px;&quot;&gt;&lt;br&gt;&lt;/p&gt;&lt;p style=&quot;margin:0px;margin-left:4px;&quot;&gt;&lt;br&gt;&lt;/p&gt;&lt;p style=&quot;margin:0px;margin-left:4px;&quot;&gt;&lt;br&gt;&lt;/p&gt;&lt;p style=&quot;margin:0px;margin-left:4px;&quot;&gt;&lt;br&gt;&lt;/p&gt;&lt;p style=&quot;margin:0px;margin-left:4px;&quot;&gt;&lt;br&gt;&lt;/p&gt;" style="verticalAlign=top;align=left;overflow=fill;html=1;whiteSpace=wrap;" parent="1" vertex="1">
          <mxGeometry x="440" y="471" width="160" height="119" as="geometry" />
        </mxCell>
        <mxCell id="82_35OJn1oNoIte2NMlz-16" value="&lt;p style=&quot;margin:0px;margin-top:4px;text-align:center;&quot;&gt;&lt;b&gt;AuditLog&lt;/b&gt;&lt;/p&gt;&lt;hr size=&quot;1&quot; style=&quot;border-style:solid;&quot;&gt;&lt;p style=&quot;margin:0px;margin-left:4px;&quot;&gt;logID&lt;/p&gt;&lt;p style=&quot;margin:0px;margin-left:4px;&quot;&gt;action&lt;/p&gt;&lt;p style=&quot;margin:0px;margin-left:4px;&quot;&gt;timestamp&lt;/p&gt;&lt;p style=&quot;margin:0px;margin-left:4px;&quot;&gt;description&lt;/p&gt;&lt;p style=&quot;margin:0px;margin-left:4px;&quot;&gt;serverID&lt;/p&gt;&lt;p style=&quot;margin:0px;margin-left:4px;&quot;&gt;&lt;br&gt;&lt;/p&gt;&lt;p style=&quot;margin:0px;margin-left:4px;&quot;&gt;&lt;br&gt;&lt;/p&gt;&lt;p style=&quot;margin:0px;margin-left:4px;&quot;&gt;&lt;br&gt;&lt;/p&gt;&lt;p style=&quot;margin:0px;margin-left:4px;&quot;&gt;&lt;br&gt;&lt;/p&gt;" style="verticalAlign=top;align=left;overflow=fill;html=1;whiteSpace=wrap;" parent="1" vertex="1">
          <mxGeometry x="265" y="380" width="160" height="110" as="geometry" />
        </mxCell>
      </root>
    </mxGraphModel>
  </diagram>
</mxfile>
